<?xml version="1.0" encoding="utf-8"?>
<!-- Generator: Adobe Illustrator 16.0.0, SVG Export Plug-In . SVG Version: 6.00 Build 0)  -->
<!DOCTYPE svg PUBLIC "-//W3C//DTD SVG 1.1//EN" "http://www.w3.org/Graphics/SVG/1.1/DTD/svg11.dtd">
<svg version="1.1" xmlns="http://www.w3.org/2000/svg" xmlns:xlink="http://www.w3.org/1999/xlink" x="0px" y="0px" width="1537px"
	 height="1537px" viewBox="0 0 1537 1537" enable-background="new 0 0 1537 1537" xml:space="preserve">
<g id="Layer_2">
</g>
<g id="Layer_1">
	<g>
		<path d="M929.85,350.654c2.677-3.866-2.678-13.683,0.592-18.737c3.633-5.616,12.794-2.974,17.557-10.709
			c3.646-5.926,1.484-20.526-37.189-50.276c-15.179-11.675-37.846-17.378-48.757-17.378c-3.646,0-5.975,0.638-6.274,1.903
			c-2.043,8.715,1.387,10.748-1.785,20.229c-1.492,4.462-10.695,0.06-15.172,5.651c-2.384,2.977-1.192,12.494-4.762,16.66
			c-20.938,24.434-185.48,197.971-244.828,263.565c-23.5,25.971-110.662,58.008-120.925,76.303
			c-26.198,46.7-293.549,418.756-316.369,454.697c-17.849,28.111,10.709,103.076,82.104,149.93
			c42.363,27.798,85.538,42.349,119.628,42.349c23.859,0,43.269-7.126,54.843-21.823c80.62-102.372,300.305-425.692,314.584-447.111
			c14.279-21.418,15.865-115.473,24.542-130.742c35.251-62.024,153.98-298.339,166.146-321.717
			C921.524,348.573,926.963,354.82,929.85,350.654z"/>
		<path d="M591.197,335.915c3.326,5.02-1.928,14.893,0.788,18.73c2.932,4.135,8.304-2.168,16.2,12.626
			c4.295,8.042,21.635,41.495,43.928,84.29c18.41-19.71,37.5-40.093,55.739-59.566c11.068-11.818,21.997-23.486,32.393-34.6
			c-26.449-27.749-46.536-48.993-53.02-56.401c-3.611-4.127-2.521-13.658-4.933-16.607c-4.535-5.55-13.693-1.049-15.23-5.498
			c-3.273-9.444,0.139-11.515-1.994-20.209c-1.238-5.037-34.777,0.258-54.868,16.046c-38.368,30.151-40.375,44.772-36.667,50.66
			C578.375,333.074,587.509,330.337,591.197,335.915z"/>
		<path d="M1056.492,637.046c-10.459-18.19-97.952-49.318-121.714-75.045c-14.453-15.642-35.084-37.497-58.356-61.983
			c-35.496,69.697-76.032,148.629-98.05,188.667c8.269,18.842,11.086,108.348,25.19,129.041
			c14.495,21.265,237.535,342.284,319.214,443.82c28.481,35.397,102.721,25.657,174.248-22.339
			c70.9-47.592,98.677-122.85,80.542-150.78C1354.371,1052.73,1083.174,683.47,1056.492,637.046z"/>
	</g>
</g>
</svg>
